<?xml version="1.0" encoding="utf-8"?>
<!-- Generator: Adobe Illustrator 15.0.0, SVG Export Plug-In . SVG Version: 6.00 Build 0)  -->
<!DOCTYPE svg PUBLIC "-//W3C//DTD SVG 1.1//EN" "http://www.w3.org/Graphics/SVG/1.1/DTD/svg11.dtd">
<svg version="1.1" id="Layer_1" xmlns="http://www.w3.org/2000/svg" xmlns:xlink="http://www.w3.org/1999/xlink" x="0px" y="0px"
	 width="32px" height="32px" viewBox="0 0 32 32" enable-background="new 0 0 32 32" xml:space="preserve">
<path fill="#474747" d="M25.282,12.803H22.4v-2.24c0-4.635-2.135-7.36-6.4-7.36c-4.264,0-6.4,2.725-6.4,7.36v2.24H6.4
	c-0.883,0-1.6,1.035-1.6,1.92v12.48c0,0.88,0.686,1.822,1.523,2.091l1.914,0.619c0.837,0.271,2.242,0.491,3.123,0.491h9.281
	c0.879,0,2.285-0.221,3.123-0.491l1.913-0.619c0.839-0.269,1.523-1.211,1.523-2.091v-12.48C27.2,13.838,26.165,12.803,25.282,12.803
	z M12.8,9.923c0-2.312,1.277-3.52,3.2-3.52c1.925,0,3.2,1.208,3.2,3.52v2.88h-6.4V9.923z"/>
</svg>
